<?xml version="1.0" standalone="no"?>
<!DOCTYPE svg PUBLIC "-//W3C//DTD SVG 20010904//EN"
 "http://www.w3.org/TR/2001/REC-SVG-20010904/DTD/svg10.dtd">
<svg version="1.0" xmlns="http://www.w3.org/2000/svg"
 width="600.000000pt" height="472.000000pt" viewBox="0 0 600.000000 472.000000"
 preserveAspectRatio="xMidYMid meet">
<g transform="translate(0.000000,472.000000) scale(0.100000,-0.100000)"
fill="#000000" stroke="none">
<path d="M1255 4586 c-397 -162 -678 -386 -870 -693 -85 -138 -176 -341 -220
-493 -71 -243 -87 -775 -34 -1090 85 -500 273 -817 574 -968 108 -54 202 -79
363 -97 l52 -6 -1 38 c0 21 -6 61 -13 88 l-11 50 -71 6 c-163 15 -290 75 -410
194 -44 44 -93 102 -109 128 -27 46 -28 53 -21 135 12 175 61 276 253 529 291
383 403 581 468 827 49 181 57 276 50 561 -9 345 9 540 66 738 11 38 19 72 17
77 -2 4 -39 -6 -83 -24z m-139 -278 c-16 -94 -26 -312 -24 -548 2 -294 -6
-369 -63 -543 -65 -198 -156 -354 -397 -675 -165 -220 -211 -294 -249 -407
-14 -41 -28 -73 -31 -70 -8 8 -38 129 -56 230 -54 306 -46 780 19 1027 75 289
249 588 452 779 100 93 310 238 347 239 4 0 6 -15 2 -32z"/>
<path d="M5828 4576 c-451 -184 -751 -458 -947 -866 -77 -160 -126 -305 -150
-439 -64 -353 -50 -828 35 -1161 98 -386 290 -656 558 -781 77 -36 226 -74
325 -83 l74 -6 -7 40 c-3 22 -11 62 -17 89 l-10 48 -77 6 c-189 13 -382 129
-496 298 -34 50 -36 59 -36 132 0 179 52 290 275 586 274 364 370 534 440 776
50 174 57 249 59 670 2 360 4 398 24 495 12 58 31 134 42 169 11 36 18 66 17
68 -2 1 -51 -17 -109 -41z m-111 -243 c-15 -24 -29 -272 -31 -559 -3 -293 -5
-339 -24 -419 -65 -278 -168 -465 -479 -872 -113 -147 -163 -231 -199 -332
-15 -42 -31 -80 -35 -84 -8 -10 -41 128 -63 264 -58 361 -34 840 55 1096 45
130 131 305 206 416 71 107 210 259 308 337 112 89 284 189 262 153z"/>
<path d="M2430 4549 c-119 -59 -245 -186 -311 -314 -78 -150 -109 -272 -109
-424 0 -223 69 -426 305 -900 301 -604 355 -839 255 -1114 -65 -176 -166 -288
-312 -342 -55 -20 -56 -23 -32 -124 17 -79 15 -78 119 -31 226 102 399 363
435 656 22 173 -26 400 -137 649 -20 44 -78 166 -131 270 -197 397 -297 645
-322 808 -51 317 98 629 341 718 l57 21 -5 37 c-15 88 -29 126 -49 129 -11 2
-58 -16 -104 -39z"/>
<path d="M3780 4563 c-289 -131 -481 -498 -441 -843 24 -206 75 -345 279 -760
204 -416 275 -593 307 -763 62 -325 -85 -647 -337 -738 -32 -12 -58 -23 -58
-25 0 -10 30 -142 35 -156 6 -15 10 -15 47 -2 213 75 385 272 465 531 24 80
27 102 27 243 -1 134 -4 168 -26 250 -34 125 -104 300 -196 485 -283 571 -357
764 -378 980 -18 192 78 439 214 556 44 38 140 89 167 89 26 0 29 29 11 106
-21 86 -26 88 -116 47z"/>
<path d="M297 452 c-24 -25 -27 -36 -27 -93 0 -57 3 -69 25 -89 23 -21 34 -24
101 -22 46 1 82 -2 90 -9 18 -14 19 -120 2 -137 -16 -16 -140 -16 -156 0 -7 7
-12 22 -12 35 0 18 -6 23 -25 23 -22 0 -25 -4 -25 -33 0 -22 8 -41 23 -55 21
-19 35 -22 118 -22 87 0 97 2 117 23 19 20 22 35 22 98 0 105 -13 117 -135
121 l-90 3 -3 54 c-4 75 12 91 93 91 66 0 81 -8 87 -49 2 -16 11 -25 26 -27
35 -6 31 54 -6 89 -26 25 -34 27 -113 27 -80 0 -87 -2 -112 -28z"/>
<path d="M1040 265 l0 -215 25 0 c23 0 25 3 25 51 0 43 6 59 39 105 l39 55 58
-105 c48 -88 61 -106 81 -106 13 0 23 3 23 7 0 3 -29 60 -65 125 l-65 119 66
87 c50 67 62 88 49 90 -30 6 -42 -6 -131 -129 l-89 -123 -3 127 -3 127 -24 0
-25 0 0 -215z"/>
<path d="M1780 460 c0 -17 7 -20 40 -20 l40 0 -2 -177 -3 -178 -37 -3 c-25 -2
-38 -8 -38 -18 0 -11 20 -14 100 -14 82 0 100 3 100 15 0 10 -11 15 -35 15
l-35 0 0 180 0 180 35 0 c28 0 35 4 35 20 0 19 -7 20 -100 20 -93 0 -100 -1
-100 -20z"/>
<path d="M2460 265 c0 -207 1 -215 20 -215 19 0 20 8 22 177 l3 178 90 -175
c87 -167 92 -175 123 -178 l32 -3 0 215 0 216 -25 0 -25 0 -2 -177 -3 -177
-90 177 c-84 164 -92 177 -117 177 l-28 0 0 -215z"/>
<path d="M3267 451 l-27 -29 0 -158 c0 -158 0 -158 27 -186 25 -27 31 -28 118
-28 83 0 94 2 113 23 14 15 22 36 22 60 0 33 -3 37 -26 37 -21 0 -25 -4 -21
-19 3 -11 -2 -29 -10 -40 -12 -18 -25 -21 -83 -21 -58 0 -71 3 -80 19 -5 11
-10 82 -10 159 0 167 3 172 97 172 66 0 79 -8 85 -55 2 -22 9 -31 26 -33 20
-3 22 1 22 35 0 30 -7 46 -28 66 -26 25 -35 27 -113 27 -80 0 -85 -1 -112 -29z"/>
<path d="M4032 267 c-34 -116 -62 -215 -62 -218 0 -3 11 -4 24 -2 19 4 27 16
41 64 l16 60 82 -3 81 -3 16 -55 c14 -47 20 -55 42 -58 l26 -3 -14 48 c-8 26
-33 109 -55 183 -65 220 -55 200 -97 200 l-37 0 -63 -213z m168 -54 c0 -2 -30
-3 -66 -3 l-66 0 6 33 c4 17 18 70 32 117 l27 85 33 -115 c18 -63 34 -116 34
-117z"/>
<path d="M4760 265 l0 -215 25 0 c25 0 25 1 25 90 l0 90 68 0 69 0 24 -88 c21
-74 28 -87 47 -90 28 -4 28 4 -3 103 -25 81 -23 95 13 118 8 5 12 33 12 79 0
64 -3 75 -27 100 -26 27 -29 28 -140 28 l-113 0 0 -215z m211 165 c15 -9 19
-22 19 -67 0 -81 -14 -93 -107 -93 l-73 0 0 85 0 85 71 0 c39 0 79 -5 90 -10z"/>
<path d="M5530 265 l0 -215 126 0 c114 0 125 2 122 17 -3 15 -17 18 -101 21
l-97 3 0 74 0 75 89 0 c67 0 90 3 94 14 9 23 -2 26 -95 26 l-88 0 0 80 0 80
100 0 c93 0 100 1 100 20 0 19 -7 20 -125 20 l-125 0 0 -215z"/>
</g>
</svg>
