<?xml version="1.0" standalone="no"?>
<!DOCTYPE svg PUBLIC "-//W3C//DTD SVG 20010904//EN"
 "http://www.w3.org/TR/2001/REC-SVG-20010904/DTD/svg10.dtd">
<svg version="1.0" xmlns="http://www.w3.org/2000/svg"
 width="504.000000pt" height="897.000000pt" viewBox="0 0 504.000000 897.000000"
 preserveAspectRatio="xMidYMid meet">
<g transform="translate(0.000000,897.000000) scale(0.100000,-0.100000)"
fill="#000000" stroke="none">
<path d="M4070 5009 c-24 -16 -52 -29 -61 -29 -9 0 -29 -7 -45 -15 -16 -8 -38
-12 -49 -9 l-21 5 -13 -15 -13 -16 6 -32 c3 -18 13 -87 21 -153 l15 -120 -11
-165 c-6 -91 -17 -183 -25 -205 -33 -96 -23 -103 163 -103 l142 0 11 13 11 14
-23 78 -23 78 -2 335 c-1 184 -2 338 -2 342 -1 4 -9 11 -18 16 l-18 9 -45 -28z
m-85 -316 c9 -95 9 -365 0 -394 l-7 -20 -21 3 -22 3 2 35 c2 19 5 125 9 235 3
110 7 206 10 213 9 30 22 -3 29 -75z"/>
<path d="M622 5004 l-43 -26 -5 -28 -6 -28 -19 -5 c-10 -3 -19 -13 -19 -22 l0
-17 -12 4 -13 5 -5 54 -5 54 -27 9 -27 10 -28 -14 c-15 -7 -64 -26 -108 -41
-92 -31 -89 -28 -75 -105 6 -32 15 -101 21 -153 l9 -94 -10 -126 c-5 -69 -14
-157 -19 -194 l-8 -68 -17 -18 c-22 -24 -21 -28 14 -46 l30 -15 95 6 96 7 23
-12 23 -13 36 16 37 15 0 19 c0 11 -6 35 -14 53 -7 19 -16 62 -20 97 l-6 63
18 5 c9 3 29 12 44 20 14 8 35 14 45 14 11 0 40 11 64 25 24 14 51 28 59 32 8
3 19 12 23 20 4 7 14 13 21 13 17 0 96 78 96 95 0 7 6 18 14 24 14 12 23 52
30 133 2 26 7 51 10 57 4 5 2 12 -4 16 -5 3 -10 18 -10 33 l0 26 -53 51 -54
50 -46 13 c-26 6 -62 12 -80 12 l-32 0 -43 -26z m170 -148 l35 -34 7 -49 c7
-58 -1 -108 -20 -124 -8 -6 -14 -17 -14 -23 0 -7 -11 -23 -25 -36 -14 -13 -25
-29 -25 -37 0 -16 -26 -17 -36 -1 l-7 11 16 12 c10 7 17 17 17 23 0 6 4 12 8
14 4 2 18 23 30 46 l23 44 -7 36 c-10 53 -31 99 -50 110 l-17 10 6 16 c9 23
20 20 59 -18z m-100 -53 c9 -8 23 -37 32 -64 l16 -49 -19 -38 c-20 -39 -95
-119 -151 -161 l-32 -24 -17 10 -16 10 -1 99 c-1 54 2 104 6 109 4 6 13 28 19
50 22 80 104 109 163 58z m-287 -15 c2 -7 6 -119 9 -248 l5 -235 -9 -15 -9
-15 -16 10 -16 10 -2 248 c-2 136 -1 250 2 252 9 10 32 5 36 -7z"/>
<path d="M3020 5005 c-14 -8 -32 -14 -41 -15 -8 0 -32 -15 -52 -34 l-37 -34 0
-32 0 -32 37 -34 37 -34 77 0 78 0 6 -10 6 -10 -26 -10 c-14 -6 -46 -10 -71
-10 l-44 0 0 -10 c0 -5 -13 -10 -30 -10 l-30 0 0 -15 c0 -8 7 -36 16 -62 l17
-48 -6 -142 -5 -141 -23 -77 -22 -77 13 -8 c8 -5 79 -9 158 -8 l143 0 6 14 c3
8 -2 40 -12 70 l-17 54 -2 247 -1 246 -13 5 c-19 6 -14 37 8 57 l20 18 0 44
c0 24 -4 53 -10 63 -24 45 -128 65 -180 35z m-16 -106 c14 -7 28 -19 31 -27
l6 -16 -15 -15 -15 -15 -26 12 -25 12 0 23 c0 38 8 42 44 26z m11 -221 c4 -13
17 -30 28 -40 l21 -16 4 -160 4 -159 -27 -41 c-15 -23 -34 -42 -41 -42 l-14 0
0 240 0 240 9 0 c5 0 13 -10 16 -22z"/>
<path d="M2035 4809 c-41 -19 -66 -41 -108 -93 l-24 -29 -11 7 c-7 4 -12 25
-12 46 l0 39 -31 16 -31 16 -26 -17 c-15 -10 -61 -28 -102 -40 l-75 -22 1 -28
c1 -16 7 -56 13 -89 l12 -60 -2 -175 c-3 -207 -10 -274 -38 -355 l-22 -60 20
-13 20 -14 153 1 153 2 14 14 15 15 -21 42 -22 43 -1 50 c-1 28 -1 58 -1 67
l1 17 54 16 c188 55 311 161 350 302 l17 63 -7 37 c-21 113 -106 203 -204 216
l-45 5 -40 -19z m65 -106 l54 -28 28 -55 c33 -67 34 -79 7 -159 l-21 -62 -36
-35 c-38 -37 -52 -42 -52 -19 0 8 4 15 9 15 6 0 21 23 35 51 l26 51 0 39 c0
21 -7 57 -16 80 l-17 40 -40 26 -40 25 -21 -5 c-11 -3 -32 -9 -44 -13 l-24 -7
4 24 3 24 35 17 c45 23 46 23 110 -9z m-329 -315 c-2 -317 -3 -321 -67 -334
l-30 -6 1 289 c0 297 2 315 34 306 10 -3 22 1 26 7 l7 12 16 -16 16 -15 -3
-243z m278 223 c14 -4 33 -20 42 -36 l18 -30 0 -45 0 -45 -29 -39 c-16 -21
-38 -45 -50 -53 -11 -8 -20 -21 -20 -29 0 -8 -4 -14 -10 -14 -5 0 -17 -8 -27
-18 -10 -11 -26 -22 -35 -25 l-18 -6 -14 22 -13 22 6 115 6 115 20 27 c32 44
68 55 124 39z"/>
<path d="M2545 4810 c-3 -5 -15 -10 -26 -10 -23 0 -99 -48 -99 -63 0 -6 -6
-18 -13 -26 -24 -28 -47 -105 -47 -157 l0 -51 36 -47 c21 -25 35 -48 33 -49
-50 -34 -78 -61 -93 -90 l-19 -35 12 -31 13 -31 46 -30 c26 -17 58 -33 72 -36
14 -3 41 -9 61 -14 20 -6 63 -10 95 -10 l59 0 45 18 c25 10 59 25 75 34 l31
16 23 47 24 47 -6 63 -5 63 -28 43 c-16 23 -38 47 -49 53 -11 6 -24 17 -28 24
l-8 12 -39 0 c-21 0 -41 4 -44 9 -3 5 -18 12 -33 16 -15 3 -30 10 -33 14 -3 3
-17 14 -32 24 l-28 17 0 43 c0 48 13 67 45 67 23 0 65 -38 65 -59 0 -7 11 -32
25 -56 l25 -43 31 -6 c18 -3 44 -6 58 -6 l27 0 27 28 27 28 -11 39 -11 40 -43
40 -43 40 -43 12 c-24 6 -58 9 -75 6 l-32 -5 -6 11 c-9 14 -53 14 -61 1z m-67
-233 l32 -33 -2 -52 c-1 -29 -3 -52 -4 -52 -59 0 -131 101 -111 155 l6 15 24
0 23 0 32 -33z m78 -192 c10 -8 27 -15 37 -15 18 0 75 -36 89 -55 4 -5 8 -29
8 -52 l0 -43 -33 0 c-44 0 -71 21 -98 77 -12 25 -31 55 -41 65 -32 32 -1 52
38 23z m-92 -54 c-4 -9 -10 -32 -13 -51 l-6 -35 -22 -3 -22 -3 -17 26 -17 26
12 23 c20 37 101 54 85 17z"/>
<path d="M3520 4811 c-8 -5 -41 -22 -73 -38 l-58 -28 -36 -47 c-19 -27 -38
-48 -42 -48 -4 0 -18 -35 -29 -79 l-22 -78 0 -76 0 -76 17 -38 c60 -131 223
-200 371 -157 l56 17 43 40 c71 66 105 157 69 186 l-14 11 -53 -35 c-57 -37
-62 -38 -122 -29 l-38 7 -31 33 c-17 18 -37 50 -44 71 l-14 38 0 85 0 85 20
43 19 42 39 0 40 0 9 -12 c5 -7 20 -41 34 -76 l24 -63 23 -15 24 -15 38 6 c50
8 63 26 64 83 l1 47 -20 28 c-44 62 -241 120 -295 88z m-163 -278 c8 -21 20
-69 25 -107 l10 -70 -11 -23 -11 -23 -19 0 -20 0 -21 46 -20 47 0 61 0 62 16
22 c21 31 33 28 51 -15z"/>
<path d="M4490 4813 c-130 -48 -207 -113 -253 -216 l-17 -38 0 -89 0 -89 20
-52 c12 -29 33 -69 48 -90 l27 -38 45 -20 c75 -34 133 -51 178 -51 l43 0 52
25 c112 52 205 201 153 244 l-14 12 -57 -37 -56 -37 -64 -4 -65 -3 -31 28 -31
28 -8 44 c-11 59 -10 60 73 60 167 0 257 61 257 173 l0 43 -27 32 -28 32 -69
25 -69 25 -46 -1 c-25 0 -53 -3 -61 -6z m108 -85 c46 -46 -18 -158 -100 -173
l-35 -7 -5 14 c-3 7 -1 42 3 77 l9 65 17 18 16 18 42 0 c22 0 46 -5 53 -12z"/>
<path d="M1165 4800 c-22 -3 -52 -13 -65 -23 -13 -9 -32 -17 -42 -17 l-18 0
-24 -38 c-13 -20 -31 -44 -40 -51 -25 -21 -42 -57 -61 -133 l-16 -66 11 -82
c6 -45 17 -92 23 -104 23 -41 89 -116 101 -114 6 1 31 -8 55 -20 l45 -22 90 0
90 0 46 17 c146 55 205 137 220 308 16 177 -25 267 -149 326 l-44 21 -91 2
c-50 1 -109 -1 -131 -4z m142 -113 c64 -107 58 -346 -10 -448 l-23 -34 -21 -3
c-23 -3 -63 25 -63 44 0 6 -7 17 -15 24 l-15 12 0 38 c0 21 -7 51 -15 66 -19
36 -19 74 0 144 8 30 15 69 15 87 0 40 37 99 70 111 l25 9 16 -8 c9 -5 26 -24
36 -42z m167 -82 c-3 -22 -1 -58 3 -80 l9 -40 -17 -65 c-9 -36 -23 -79 -30
-97 l-13 -32 -20 -5 c-29 -8 -31 -2 -16 60 16 67 17 91 7 211 l-8 92 45 -2 45
-2 -5 -40z m-434 -146 l0 -121 -12 4 c-7 3 -19 28 -27 57 l-14 52 13 57 c17
81 19 84 30 77 l10 -6 0 -120z"/>
</g>
</svg>
