<?xml version="1.0" standalone="no"?>
<!DOCTYPE svg PUBLIC "-//W3C//DTD SVG 20010904//EN"
 "http://www.w3.org/TR/2001/REC-SVG-20010904/DTD/svg10.dtd">
<svg version="1.0" xmlns="http://www.w3.org/2000/svg"
 width="600.000000pt" height="600.000000pt" viewBox="0 0 600.000000 600.000000"
 preserveAspectRatio="xMidYMid meet">
<g transform="translate(0.000000,600.000000) scale(0.100000,-0.100000)"
fill="#000000" stroke="none">
<path d="M2211 3924 c-61 -16 -139 -59 -191 -105 l-35 -31 45 6 c61 8 177 67
219 110 39 40 38 41 -38 20z"/>
<path d="M900 3795 c0 -21 5 -25 29 -25 16 0 39 -9 52 -19 l24 -19 3 -506 3
-506 44 0 45 0 0 245 0 245 93 0 c106 -1 160 -11 196 -38 14 -10 58 -79 97
-153 132 -248 164 -283 273 -296 49 -6 51 -5 51 19 0 22 -7 27 -45 37 -54 13
-70 36 -175 236 -45 86 -88 154 -112 178 -21 20 -33 37 -25 37 34 0 139 65
181 112 121 133 92 335 -60 424 -81 48 -128 54 -411 54 l-263 0 0 -25z m509
-45 c119 -20 180 -70 202 -168 27 -115 -27 -223 -138 -275 -63 -29 -74 -31
-220 -35 l-153 -5 0 247 0 246 123 0 c67 0 151 -5 186 -10z"/>
<path d="M4170 3795 c0 -21 5 -25 30 -25 61 0 67 -18 75 -225 4 -102 6 -329 4
-503 l-4 -317 48 -3 47 -3 0 270 0 271 38 0 c99 0 151 -36 226 -156 222 -354
236 -368 365 -380 l73 -7 -4 29 c-3 25 -8 30 -43 35 -78 10 -98 31 -245 259
-100 155 -156 222 -202 241 l-29 12 40 41 c21 23 85 109 141 191 57 83 114
163 129 179 31 34 95 65 134 66 22 0 27 4 27 25 0 23 -3 25 -48 25 -70 0 -141
-39 -189 -103 -21 -29 -82 -118 -136 -198 -107 -164 -134 -187 -222 -196 l-55
-6 0 252 0 251 -100 0 -100 0 0 -25z"/>
<path d="M2067 3680 c-181 -46 -297 -205 -297 -410 0 -216 124 -374 320 -410
144 -26 299 33 380 147 32 44 32 46 15 59 -21 16 -45 18 -45 5 0 -4 -18 -28
-39 -53 -83 -94 -251 -132 -362 -81 -56 25 -111 80 -139 140 -34 73 -32 95 14
117 33 16 73 21 235 27 204 8 242 14 290 48 90 65 74 232 -32 328 -84 75 -228
111 -340 83z m230 -86 c64 -40 106 -108 111 -182 7 -105 -38 -132 -218 -132
-137 0 -261 -15 -301 -36 l-32 -16 5 78 c15 211 132 330 315 321 59 -3 82 -10
120 -33z"/>
<path d="M2763 3671 c-69 -24 -117 -62 -142 -114 -26 -53 -26 -99 -2 -152 30
-66 89 -103 270 -170 167 -62 217 -123 177 -218 -53 -127 -281 -140 -384 -22
-19 20 -38 48 -44 61 -12 25 -33 30 -57 15 -37 -24 53 -137 144 -182 57 -28
77 -33 143 -33 94 0 164 22 220 69 77 67 102 166 62 245 -32 63 -97 104 -255
159 -166 59 -213 102 -202 185 11 77 96 123 209 113 73 -6 134 -40 171 -94 25
-39 31 -42 50 -32 12 7 23 13 25 14 9 8 -32 66 -71 102 -76 70 -204 92 -314
54z"/>
<path d="M3495 3677 c-22 -8 -53 -21 -70 -29 -76 -40 -187 -198 -154 -219 27
-17 45 -9 62 29 26 59 82 118 139 146 144 72 297 -19 298 -176 0 -45 -2 -49
-39 -67 -21 -11 -102 -39 -180 -62 -156 -47 -228 -84 -275 -142 -26 -32 -31
-48 -34 -105 -3 -58 0 -72 20 -102 50 -74 153 -111 250 -91 87 19 138 48 204
117 62 63 64 65 64 37 0 -15 9 -46 19 -69 20 -45 68 -74 120 -74 26 0 31 4 31
24 0 18 -7 25 -29 29 -50 10 -54 30 -61 307 -5 229 -8 260 -26 300 -48 104
-116 151 -229 157 -41 1 -87 -3 -110 -10z m244 -578 c-44 -82 -125 -154 -196
-175 -63 -18 -106 -13 -154 19 -46 31 -61 63 -56 120 7 85 74 136 239 184 51
14 116 36 143 48 l50 21 3 -78 c3 -72 0 -84 -29 -139z"/>
<path d="M4026 3314 c-36 -35 -10 -104 39 -104 27 0 55 34 55 66 0 45 -62 70
-94 38z"/>
<path d="M4883 3313 c16 -4 19 -13 20 -60 0 -13 4 -23 8 -23 5 0 9 18 9 39 0
33 4 40 23 44 12 2 0 4 -28 4 -27 1 -42 -1 -32 -4z"/>
<path d="M4992 3268 l1 -53 6 45 7 45 13 -42 c8 -24 17 -43 22 -43 4 0 14 17
22 38 l16 37 0 -37 c1 -21 6 -38 11 -38 6 0 10 23 10 50 0 61 -20 68 -42 13
l-15 -38 -16 38 c-23 53 -37 47 -35 -15z"/>
<path d="M1348 2300 c-21 -16 -28 -30 -28 -55 0 -40 23 -60 82 -70 20 -4 45
-16 55 -27 17 -19 17 -20 -6 -39 -28 -23 -50 -24 -96 -5 -33 14 -53 7 -40 -13
10 -17 77 -33 112 -28 46 8 73 33 73 68 0 37 -21 56 -85 74 -29 9 -56 22 -59
30 -15 41 32 65 90 47 22 -7 36 -7 40 0 11 17 -13 31 -63 35 -39 4 -53 1 -75
-17z"/>
<path d="M1632 2193 c2 -90 7 -128 16 -131 8 -2 12 8 12 30 0 24 8 42 25 58
l24 23 53 -57 c48 -50 78 -69 78 -48 0 4 -25 36 -55 72 l-54 65 49 50 c28 28
50 54 50 58 0 21 -32 -1 -97 -65 l-73 -72 0 72 c0 58 -3 72 -15 72 -13 0 -15
-18 -13 -127z"/>
<path d="M1958 2195 c-2 -69 -2 -125 -1 -125 1 0 8 -3 17 -6 14 -5 16 10 16
125 0 107 -3 131 -14 131 -12 0 -15 -24 -18 -125z"/>
<path d="M2140 2190 c0 -109 2 -130 15 -130 12 0 15 17 15 90 0 50 3 90 8 90
4 0 35 -36 70 -80 35 -44 72 -85 83 -90 18 -10 19 -6 19 120 0 109 -2 130 -15
130 -12 0 -15 -17 -15 -90 0 -49 -3 -90 -7 -90 -5 1 -39 41 -78 90 -38 50 -76
90 -82 90 -10 0 -13 -33 -13 -130z"/>
<path d="M2693 2310 c-24 -10 -43 -39 -43 -68 0 -27 27 -48 90 -69 43 -14 56
-23 58 -40 5 -36 -41 -50 -98 -30 -49 18 -60 15 -44 -11 30 -46 156 -35 175
16 17 44 -6 73 -76 97 -47 16 -61 25 -63 42 -5 33 36 50 85 35 29 -9 39 -9 45
1 17 26 -80 47 -129 27z"/>
<path d="M3013 2306 c-92 -42 -94 -179 -3 -228 41 -22 96 -19 136 7 39 25 16
43 -29 22 -26 -13 -41 -14 -70 -6 -45 12 -67 42 -67 92 0 70 71 114 136 84 22
-11 35 -13 40 -6 21 35 -86 61 -143 35z"/>
<path d="M3292 2193 c3 -106 6 -128 18 -128 13 0 15 21 15 125 0 112 -2 125
-18 128 -16 3 -17 -6 -15 -125z"/>
<path d="M3474 2307 c-2 -7 -3 -65 -2 -128 l3 -114 90 0 c73 0 90 3 90 15 0
12 -16 16 -72 18 l-73 3 0 39 0 40 60 0 c47 0 60 3 60 15 0 12 -13 15 -61 15
l-60 0 3 38 3 37 55 2 c30 1 61 2 68 2 6 1 12 8 12 16 0 20 -168 22 -176 2z"/>
<path d="M3789 2318 c-1 -1 -3 -58 -5 -124 -3 -114 -2 -122 16 -127 18 -5 20
2 22 89 l3 94 70 -90 c97 -126 105 -124 105 36 0 114 -2 125 -17 122 -15 -3
-19 -18 -23 -92 l-5 -88 -70 88 c-60 75 -92 106 -96 92z"/>
<path d="M4194 2301 c-47 -28 -64 -59 -64 -112 0 -57 32 -102 86 -119 59 -20
156 11 127 41 -10 10 -15 9 -28 -1 -27 -22 -94 -16 -121 12 -38 37 -42 87 -10
125 33 39 75 50 117 29 31 -16 49 -14 49 5 0 14 -63 39 -97 39 -15 0 -42 -9
-59 -19z"/>
<path d="M4480 2190 l0 -131 87 3 c74 3 88 6 91 21 3 15 -6 17 -72 17 l-76 0
0 40 0 40 65 0 c51 0 65 3 65 15 0 12 -14 15 -66 15 l-65 0 3 37 3 37 68 -3
c62 -2 67 -1 67 18 0 20 -6 21 -85 21 l-85 0 0 -130z"/>
</g>
</svg>
