<?xml version="1.0" standalone="no"?>
<!DOCTYPE svg PUBLIC "-//W3C//DTD SVG 20010904//EN"
 "http://www.w3.org/TR/2001/REC-SVG-20010904/DTD/svg10.dtd">
<svg version="1.0" xmlns="http://www.w3.org/2000/svg"
 width="1536.000000pt" height="1536.000000pt" viewBox="0 0 1536.000000 1536.000000"
 preserveAspectRatio="xMidYMid meet">
<g transform="translate(0.000000,1536.000000) scale(0.100000,-0.100000)"
fill="#000000" stroke="none">
<path d="M6858 10079 c-31 -4 -87 -23 -124 -41 l-68 -33 -53 -54 c-29 -30 -55
-62 -59 -73 -3 -10 -10 -18 -15 -18 -5 0 -9 -9 -9 -19 0 -11 -7 -26 -15 -35
-8 -8 -15 -23 -15 -33 0 -10 -8 -30 -17 -43 l-17 -24 0 -202 1 -201 16 -24
c10 -13 17 -33 17 -45 0 -12 7 -27 15 -34 8 -7 15 -19 15 -27 0 -17 75 -116
122 -159 43 -41 257 -181 355 -233 34 -18 153 -132 153 -147 0 -6 7 -17 15
-24 8 -7 15 -23 15 -35 0 -12 7 -28 15 -35 l15 -12 0 -108 0 -108 -15 -12 c-8
-7 -15 -21 -15 -32 0 -41 -72 -128 -135 -161 l-40 -21 -90 -1 -90 0 -70 34
c-78 38 -102 57 -191 149 l-61 62 -21 0 -20 0 -6 -22 c-3 -13 -6 -36 -6 -53 0
-16 -7 -41 -15 -55 -8 -14 -14 -36 -15 -49 l0 -24 35 -32 c84 -80 203 -136
366 -171 l77 -16 48 10 c27 6 68 14 92 18 24 3 56 12 70 20 15 8 31 14 35 14
38 0 165 129 208 210 13 25 27 47 32 48 4 2 7 18 7 37 l0 33 15 12 15 12 0
218 0 218 -15 12 c-8 7 -15 22 -15 35 0 12 -11 42 -25 66 -13 24 -29 53 -34
64 -25 56 -282 265 -325 265 -8 0 -19 7 -26 15 -7 8 -17 15 -22 15 -6 0 -30
14 -55 30 -24 17 -48 30 -52 30 -13 0 -151 134 -151 146 0 6 -7 17 -15 24 -8
7 -15 25 -15 39 0 15 -7 36 -15 47 l-14 19 -1 61 0 60 15 20 c8 10 15 29 15
42 0 32 57 104 110 140 l45 30 60 6 c68 7 167 -6 173 -23 2 -6 10 -11 17 -11
17 0 140 -92 175 -130 14 -15 35 -31 47 -34 l23 -7 10 26 c5 14 10 43 10 64
l0 39 15 12 c33 28 16 55 -75 115 -94 62 -164 89 -267 104 -79 12 -84 12 -165
0z"/>
<path d="M8319 10079 c-59 -8 -121 -30 -174 -62 -39 -24 -137 -129 -147 -158
-5 -16 -14 -29 -19 -29 -5 0 -9 -11 -9 -24 0 -13 -7 -29 -15 -36 l-15 -12 0
-37 c0 -21 -7 -46 -15 -57 l-14 -19 -1 -141 0 -142 15 -12 15 -12 0 -48 0 -48
15 -12 c8 -7 15 -21 15 -31 0 -10 5 -21 11 -24 5 -4 14 -17 20 -28 25 -60 115
-154 199 -208 93 -61 143 -93 180 -113 110 -60 214 -160 261 -253 l19 -37 0
-127 0 -127 -15 -12 c-8 -7 -15 -19 -15 -28 0 -50 -112 -140 -195 -157 l-50
-10 -65 11 -65 11 -64 34 -63 34 -67 65 c-37 36 -74 76 -83 89 l-17 24 -15 -6
-16 -6 0 -25 c0 -14 -4 -28 -10 -31 -5 -3 -12 -28 -16 -56 -4 -27 -11 -52 -15
-55 -24 -14 36 -104 69 -104 3 0 13 -6 21 -14 49 -43 168 -92 295 -120 l68
-16 97 16 c53 8 110 21 128 29 17 8 34 15 38 15 35 0 205 177 205 213 0 8 7
20 15 27 8 7 15 22 15 34 0 12 7 31 15 42 l14 19 1 49 c0 27 8 76 17 109 l16
60 -12 61 c-7 33 -15 90 -18 126 -3 35 -11 73 -19 84 -8 11 -14 30 -14 42 0
12 -7 27 -15 34 -8 7 -15 17 -15 22 0 17 -87 122 -136 165 -65 55 -101 83
-108 83 -3 0 -22 12 -43 26 -21 14 -47 30 -58 35 -11 5 -33 18 -50 29 -16 11
-37 23 -45 27 -66 30 -193 153 -229 224 l-21 40 0 105 0 106 17 31 c31 56 82
115 120 138 l37 23 95 0 96 -1 35 -19 c62 -34 119 -77 181 -137 l60 -59 14 6
15 5 0 38 c0 21 7 47 15 57 l15 20 0 42 0 42 -24 15 c-13 9 -30 22 -38 30 -42
43 -186 102 -268 112 -30 3 -66 8 -80 9 -14 2 -55 0 -91 -5z"/>
<path d="M5335 10073 l-60 -4 -17 -16 -18 -16 0 -32 c0 -17 -7 -40 -15 -51 -8
-10 -15 -33 -15 -50 0 -16 -7 -39 -15 -50 -8 -10 -15 -35 -15 -55 l0 -37 -15
-12 -15 -12 0 -38 0 -38 -15 -12 -15 -12 0 -38 0 -38 -15 -12 -15 -12 0 -33 0
-33 -15 -12 -15 -12 0 -32 c0 -18 -7 -41 -15 -52 -8 -10 -15 -33 -15 -50 0
-16 -7 -39 -15 -50 -8 -10 -15 -30 -15 -44 0 -14 -7 -38 -15 -54 -8 -15 -15
-43 -15 -60 0 -18 -7 -41 -15 -52 -8 -10 -15 -30 -15 -44 0 -14 -7 -38 -15
-54 -8 -15 -15 -43 -15 -60 0 -18 -7 -41 -15 -52 -8 -10 -15 -35 -15 -55 l0
-37 -15 -12 -15 -12 0 -32 c0 -18 -7 -41 -15 -52 -8 -10 -15 -33 -15 -50 0
-16 -7 -39 -15 -50 -8 -10 -15 -30 -15 -44 0 -14 -9 -42 -20 -63 -11 -20 -20
-52 -20 -71 0 -19 -4 -37 -9 -40 -5 -3 -12 -22 -16 -43 -4 -20 -13 -46 -21
-57 -8 -11 -14 -37 -14 -57 l0 -37 -15 -12 -15 -12 0 -35 0 -34 -15 -15 c-42
-42 -15 -72 60 -67 l49 3 19 19 19 19 6 48 c2 27 11 58 18 69 8 11 14 33 14
50 0 17 4 35 10 41 5 5 11 26 14 47 3 21 9 44 15 51 6 7 13 32 15 56 2 23 9
47 15 53 6 6 11 27 11 47 0 20 7 45 15 56 8 10 15 32 15 47 0 16 5 37 10 48
l11 19 304 0 305 0 0 -22 c0 -13 7 -32 15 -42 8 -11 15 -36 15 -55 0 -20 7
-45 15 -55 8 -11 15 -36 15 -57 l0 -37 15 -12 15 -12 0 -37 c0 -21 7 -46 15
-57 8 -10 15 -33 15 -50 0 -17 7 -37 15 -44 l15 -12 0 -42 c0 -22 7 -50 15
-60 8 -11 15 -32 15 -48 l0 -28 144 0 145 0 6 10 c4 6 2 16 -3 23 -5 7 -12 29
-16 49 -4 20 -13 50 -21 65 -8 15 -15 39 -15 53 0 14 -7 34 -15 44 -8 11 -15
36 -15 57 l0 37 -15 12 -15 12 0 33 0 33 -15 12 -15 12 0 37 c0 21 -7 46 -15
57 -8 10 -15 35 -15 55 l0 37 -15 12 -15 12 0 38 0 38 -15 12 -15 12 0 43 0
43 -15 12 -15 12 0 38 0 38 -15 12 -15 12 0 32 c0 18 -7 41 -15 52 -8 10 -15
35 -15 55 l0 37 -15 12 -15 12 0 38 0 38 -15 12 -15 12 0 43 0 43 -15 6 -15 5
0 44 0 45 -15 12 -15 12 0 38 0 38 -15 12 -15 12 0 37 c0 20 -7 45 -15 55 -8
11 -15 34 -15 52 l0 32 -15 12 -15 12 0 43 0 43 -15 12 -15 12 0 43 0 43 -15
12 -15 12 0 37 0 38 -23 21 c-13 12 -25 21 -28 20 -2 -1 -31 -3 -64 -5z m-56
-466 c12 -24 21 -55 21 -68 0 -14 7 -34 15 -45 8 -10 15 -35 15 -55 l0 -37 15
-12 15 -12 0 -37 c0 -21 7 -46 15 -57 8 -10 15 -35 15 -54 0 -19 7 -44 15 -54
8 -11 15 -34 15 -50 0 -17 7 -40 15 -50 8 -11 15 -34 15 -52 l0 -32 15 -12 15
-12 0 -32 c0 -17 7 -42 16 -54 l15 -22 -3 -47 -3 -48 -245 4 -245 3 -10 9 -10
10 18 30 c9 17 17 45 17 64 l0 33 15 12 15 12 0 32 c0 18 7 41 15 52 8 10 15
36 15 56 l0 37 15 15 c8 8 15 30 15 48 0 18 7 42 15 52 8 11 15 36 15 56 0 20
7 45 15 56 8 10 15 35 15 54 0 19 7 44 15 54 8 11 15 36 15 57 l0 37 15 12 15
12 0 33 c0 27 6 45 16 45 1 0 12 -19 23 -43z"/>
<path d="M4220 10059 c-96 -5 -338 -6 -537 -2 l-362 6 -6 -24 c-3 -14 -5 -54
-3 -89 l3 -65 225 0 225 0 1 -960 2 -960 122 -3 123 -3 9 9 10 10 -1 818 c-1
451 -4 874 -7 941 l-7 122 13 16 13 16 211 -3 211 -3 3 60 c2 33 0 75 -3 93
l-6 32 -32 -2 c-18 -1 -111 -5 -207 -9z"/>
<path d="M10238 10065 c-2 -3 -194 -6 -427 -6 -232 -1 -424 -5 -426 -10 -4 -5
-8 -1839 -5 -2074 l0 -10 483 0 482 0 0 90 0 90 -345 0 -345 0 -3 399 c-1 220
1 403 5 407 5 4 132 4 283 0 l275 -7 15 12 15 13 -1 66 -2 67 -13 9 -14 9
-282 -6 -283 -7 0 386 c0 212 3 387 8 389 4 2 151 1 327 -2 l320 -6 7 10 c9
13 10 132 2 164 l-6 22 -32 0 c-18 0 -35 -2 -38 -5z"/>
<path d="M10892 10048 l-10 -13 9 -140 c5 -77 9 -543 8 -1035 l0 -895 485 -3
486 -3 1 13 c3 33 -3 164 -8 168 -3 3 -163 5 -356 5 l-352 0 0 955 -1 955
-125 3 -126 3 -11 -13z"/>
<path d="M3310 7253 l-17 -12 5 -31 c2 -16 8 -33 13 -35 4 -3 1935 -6 4290 -6
l4281 0 14 12 c16 13 19 65 5 74 -5 3 -1936 6 -4292 8 l-4282 2 -17 -12z"/>
<path d="M5824 6570 c-17 -4 -42 -18 -55 -31 l-23 -23 -4 -61 -4 -61 14 -15
c8 -8 17 -22 21 -31 l6 -17 -34 -42 -35 -41 -1 -31 c-5 -111 5 -144 52 -178
l31 -22 38 -1 c39 -1 87 19 106 43 l11 14 9 -16 c5 -8 22 -22 38 -31 l29 -15
19 10 c24 13 23 30 -3 60 -12 13 -28 34 -36 46 l-14 21 19 39 c11 21 22 59 23
83 l4 45 -24 0 -24 0 -16 -52 c-22 -70 -24 -71 -60 -13 -38 61 -39 44 14 126
l45 68 0 26 c0 14 -11 42 -25 61 l-26 34 -32 5 c-18 3 -46 3 -63 0z m54 -72
c7 -7 12 -28 12 -47 l0 -34 -17 -19 c-38 -42 -63 -19 -57 52 5 55 33 77 62 48z
m-48 -247 c0 -5 6 -16 13 -23 6 -7 26 -34 44 -59 l32 -46 -18 -17 -18 -16 -36
0 -36 0 -15 22 -16 22 0 47 c0 26 3 54 6 63 6 17 44 23 44 7z"/>
<path d="M9105 6571 c-22 -4 -52 -17 -67 -31 l-28 -24 0 -27 c0 -15 -4 -31
-10 -34 -45 -28 20 -153 100 -191 19 -10 47 -26 63 -37 l27 -21 0 -44 0 -45
-17 -13 c-24 -18 -85 -17 -109 1 -10 8 -31 15 -45 15 l-27 0 -6 -16 c-9 -24
10 -50 54 -73 l41 -21 40 0 40 0 39 22 c21 12 45 35 54 49 l16 27 0 67 0 68
-19 31 c-19 30 -72 76 -88 76 -5 0 -25 11 -46 25 l-37 26 0 34 0 35 20 20 c24
24 41 25 87 4 l34 -17 21 20 20 20 -24 26 -23 25 -35 5 c-19 2 -53 1 -75 -2z"/>
<path d="M4007 6564 c-4 -4 -7 -125 -7 -269 l0 -261 12 -12 c16 -16 34 -15 53
4 l16 17 -2 108 c-1 60 1 112 4 115 10 10 134 12 149 3 l13 -8 0 -117 0 -117
18 -11 17 -11 18 11 17 11 0 269 0 269 -35 0 -35 0 -2 -108 c-2 -129 5 -121
-85 -118 -89 3 -79 -11 -81 118 l-2 108 -30 3 c-17 2 -34 0 -38 -4z"/>
<path d="M4561 6526 c-12 -25 -21 -54 -21 -64 0 -11 -7 -33 -15 -48 -8 -16
-15 -36 -15 -45 0 -9 -7 -30 -15 -45 -8 -16 -15 -41 -15 -55 0 -15 -7 -40 -15
-55 -8 -16 -15 -36 -15 -45 0 -9 -7 -30 -15 -45 -8 -16 -15 -46 -15 -66 l0
-38 18 0 c29 0 53 34 59 82 3 24 12 49 21 56 l16 12 59 0 c32 0 67 -5 78 -10
l19 -11 0 -43 0 -43 23 -21 c13 -12 35 -22 49 -22 l27 0 3 18 c4 17 -21 101
-48 159 -7 17 -14 42 -14 56 0 14 -4 28 -9 31 -5 3 -12 26 -15 51 -4 24 -11
47 -17 50 -5 4 -9 18 -9 32 0 14 -7 39 -14 56 -8 18 -16 46 -18 62 l-3 30 -32
3 -32 3 -20 -45z m49 -120 c0 -13 7 -37 15 -52 8 -16 15 -40 15 -54 0 -15 5
-31 11 -37 6 -6 8 -16 5 -22 l-7 -11 -54 0 -54 0 -7 11 c-3 6 -1 16 5 22 6 6
11 25 11 42 0 17 7 40 15 51 8 10 15 31 15 45 0 14 3 29 6 32 12 11 24 -3 24
-27z"/>
<path d="M4905 6560 c-3 -5 -6 -126 -5 -268 l1 -257 13 -13 14 -14 21 11 21
12 -2 267 -3 267 -27 3 c-14 2 -29 -2 -33 -8z"/>
<path d="M5117 6556 c-9 -22 -7 -509 1 -522 4 -6 17 -14 29 -18 l22 -7 12 22
11 22 -6 94 c-4 51 -4 98 -1 104 l7 11 24 -23 c13 -12 24 -28 24 -35 0 -7 6
-25 14 -41 8 -15 24 -49 35 -75 12 -26 33 -55 47 -65 l26 -17 17 11 c9 5 17
21 19 35 l3 25 -15 13 c-9 7 -16 18 -16 26 0 7 -6 19 -12 26 -14 14 -58 100
-58 112 0 4 16 22 35 40 l35 33 0 21 c0 11 5 24 10 27 14 9 12 36 -6 97 l-17
53 -26 20 -26 20 -91 3 -91 4 -6 -16z m164 -77 l21 -21 -4 -60 -4 -60 -15 -9
c-8 -5 -32 -8 -54 -7 l-40 3 -3 74 c-2 41 -1 80 2 88 l5 13 36 0 35 0 21 -21z"/>
<path d="M6376 6553 c-7 -24 -7 -481 1 -510 l5 -23 88 0 88 0 27 14 c14 8 35
23 46 35 l19 20 0 85 0 85 -31 24 -30 23 15 13 c9 8 16 21 16 31 0 10 7 23 15
30 l15 12 0 38 c0 42 -20 88 -51 116 l-21 19 -98 3 -98 4 -6 -19z m183 -82
c26 -37 27 -65 1 -101 l-20 -28 -41 -4 -41 -4 -8 16 c-9 17 -5 124 5 141 4 5
24 9 45 9 l39 0 20 -29z m3 -221 l30 -31 -5 -45 c-2 -25 -13 -54 -22 -64 l-18
-20 -49 0 -48 0 -1 38 c-1 20 -3 56 -3 79 -3 50 2 59 29 66 42 10 57 6 87 -23z"/>
<path d="M6788 6563 l-18 -4 0 -265 0 -264 23 -5 c12 -3 67 -5 122 -3 l100 3
3 24 c2 13 -1 28 -7 34 l-10 10 -63 -2 c-35 -1 -69 3 -77 8 l-14 9 -5 56 -4
56 16 25 16 25 55 0 54 0 6 20 7 21 -12 14 -12 15 -53 0 -53 0 -12 14 -12 15
7 56 c9 67 13 70 97 66 l67 -2 7 25 c3 14 4 33 0 41 l-5 15 -103 -1 c-57 -1
-111 -3 -120 -6z"/>
<path d="M7246 6554 c-3 -9 -6 -28 -6 -44 0 -15 -7 -33 -15 -40 l-15 -12 0
-39 c0 -22 -4 -39 -9 -39 -5 0 -12 -18 -16 -40 -4 -23 -14 -54 -22 -70 -8 -16
-12 -34 -8 -39 3 -6 -4 -27 -15 -48 -11 -21 -20 -46 -20 -56 0 -10 -7 -29 -16
-43 l-17 -25 11 -24 c21 -45 72 -19 72 35 0 16 4 31 9 34 4 3 11 19 14 36 l7
30 80 0 81 0 6 -30 c3 -17 10 -33 14 -36 5 -3 9 -18 9 -33 0 -34 21 -54 52
-49 l23 3 3 38 3 39 -14 21 c-8 12 -17 40 -21 62 -4 22 -12 45 -17 51 -5 7
-12 27 -14 46 -2 19 -11 48 -20 64 -8 16 -15 41 -15 56 0 15 -4 29 -9 32 -4 3
-11 27 -15 52 -3 26 -14 56 -23 66 l-16 18 -27 0 -28 0 -6 -16z m59 -186 c3
-24 13 -58 22 -76 8 -18 12 -40 9 -48 l-6 -15 -52 3 -53 3 3 37 c1 20 9 50 17
65 8 15 15 38 15 51 l0 22 19 0 19 0 7 -42z"/>
<path d="M7574 6557 c-2 -8 -3 -108 -1 -223 l5 -209 17 -32 c9 -18 30 -42 47
-54 l31 -22 46 -5 47 -4 46 41 46 42 7 42 c4 23 8 130 9 237 l1 195 -30 0 -30
0 -5 -210 -5 -210 -19 -27 -18 -28 -38 0 -39 0 -20 29 -21 29 -2 208 -3 209
-33 3 -32 3 -6 -14z"/>
<path d="M7972 6558 c-33 -33 -2 -71 55 -68 21 2 43 2 50 1 l12 -1 -6 -228 -6
-227 16 -14 17 -13 25 6 25 6 0 235 0 235 34 0 c18 0 47 3 64 6 l31 6 7 21 6
20 -18 14 -18 13 -141 0 -141 0 -12 -12z"/>
<path d="M8355 6559 c-9 -14 3 -59 15 -59 6 0 10 -7 10 -15 0 -17 41 -99 52
-103 4 -2 8 -14 8 -27 0 -13 7 -30 15 -39 8 -8 15 -20 15 -26 0 -6 6 -23 14
-38 l14 -27 -9 -89 -9 -89 17 -19 c20 -22 46 -23 68 -2 l16 17 -2 113 -3 112
18 39 c11 21 23 45 28 53 4 8 11 22 14 30 3 8 10 22 15 30 5 8 12 22 15 30 3
8 13 29 21 45 8 17 14 40 12 50 l-4 20 -23 3 c-29 4 -52 -14 -52 -42 0 -11 -7
-30 -15 -40 -8 -11 -15 -27 -15 -35 0 -8 -9 -34 -21 -58 -21 -44 -49 -58 -49
-25 0 10 -7 27 -15 38 -8 10 -15 27 -15 36 0 9 -6 23 -13 30 -8 7 -17 30 -21
50 l-6 36 -23 6 c-34 9 -65 7 -72 -5z"/>
<path d="M9350 6555 l-13 -16 11 -24 12 -25 56 0 57 0 -7 -222 -7 -223 14 -19
14 -19 26 7 27 6 2 232 3 232 60 11 60 10 3 24 4 24 -14 8 c-7 5 -77 9 -154 9
l-142 0 -12 -15z"/>
<path d="M9767 6564 c-4 -4 -7 -103 -7 -220 l0 -213 14 -13 c7 -8 17 -24 20
-36 4 -12 24 -33 44 -47 l37 -25 40 0 40 0 27 18 c40 26 68 62 68 87 0 11 6
27 13 33 l12 13 3 180 c2 99 1 191 -2 205 l-7 25 -27 -3 -27 -3 -6 -216 -5
-215 -21 -21 c-21 -21 -38 -26 -80 -24 l-22 1 -18 33 -18 32 -5 205 -5 205
-30 3 c-17 2 -34 0 -38 -4z"/>
<path d="M10217 6563 c-9 -8 -9 -490 -1 -520 l6 -23 79 0 80 0 32 14 c39 17
87 62 87 81 0 7 5 15 11 17 16 5 32 76 36 166 l5 83 -10 12 c-5 7 -12 25 -16
41 -10 41 -35 75 -80 107 l-39 29 -92 0 c-50 0 -95 -3 -98 -7z m210 -107 l33
-36 0 -24 c0 -14 5 -36 11 -49 l11 -23 -16 -78 c-24 -116 -61 -156 -141 -156
l-35 0 0 206 0 207 52 -5 52 -5 33 -37z"/>
<path d="M10669 6563 c-1 -4 -2 -125 -3 -268 l-3 -260 10 -12 c14 -19 45 -16
55 5 4 9 8 134 8 277 l-1 260 -32 3 c-18 2 -33 0 -34 -5z"/>
<path d="M10948 6536 c-19 -19 -45 -53 -56 -75 l-22 -42 0 -124 0 -124 22 -43
c41 -79 95 -118 163 -118 l35 0 38 24 c21 13 50 40 65 59 l27 36 0 28 c0 15 7
37 15 47 l15 20 0 70 0 71 -15 29 c-8 15 -15 39 -15 52 0 14 -6 27 -14 30 -8
3 -17 15 -20 27 -3 12 -21 32 -39 45 l-33 22 -66 0 -65 0 -35 -34z m167 -59
l20 -22 16 -79 16 -78 -16 -77 c-9 -42 -24 -88 -34 -102 l-18 -27 -30 -6 -31
-6 -28 16 -27 17 -18 41 -18 40 1 112 1 112 20 33 c11 18 30 39 43 46 l23 13
30 -5 c16 -3 39 -15 50 -28z"/>
</g>
</svg>
